{
	"accessors" : 
	[
		{
			"bufferView" : 2,
			"byteOffset" : 0,
			"componentType" : 5126,
			"count" : 19994,
			"max" : 
			[
				1,
				1,
				1,
				1
			],
			"min" : 
			[
				0.006584956776350737,
				0.006584956776350737,
				0,
				1
			],
			"name" : "accessor_color_m0-PolyPaper22_-1347854",
			"type" : "VEC4"
		},
		{
			"bufferView" : 2,
			"byteOffset" : 319904,
			"componentType" : 5126,
			"count" : 11018,
			"max" : 
			[
				1,
				1,
				1,
				1
			],
			"min" : 
			[
				0.006584956776350737,
				0.006584956776350737,
				0.006584956776350737,
				1
			],
			"name" : "accessor_color_m1-PolyPaper23_-1347860",
			"type" : "VEC4"
		},
		{
			"bufferView" : 0,
			"byteOffset" : 0,
			"componentType" : 5123,
			"count" : 29664,
			"max" : 
			[
				19993
			],
			"min" : 
			[
				0
			],
			"name" : "accessor_indices_0_m0-PolyPaper22_-1347854",
			"type" : "SCALAR"
		},
		{
			"bufferView" : 0,
			"byteOffset" : 59328,
			"componentType" : 5123,
			"count" : 15984,
			"max" : 
			[
				11017
			],
			"min" : 
			[
				0
			],
			"name" : "accessor_indices_0_m1-PolyPaper23_-1347860",
			"type" : "SCALAR"
		},
		{
			"bufferView" : 1,
			"byteOffset" : 239928,
			"componentType" : 5126,
			"count" : 19994,
			"max" : 
			[
				0.9995049,
				0.9999501,
				0.9983273
			],
			"min" : 
			[
				-0.9996467,
				-0.9999501,
				-0.9982017
			],
			"name" : "accessor_normal_m0-PolyPaper22_-1347854",
			"type" : "VEC3"
		},
		{
			"bufferView" : 1,
			"byteOffset" : 612072,
			"componentType" : 5126,
			"count" : 11018,
			"max" : 
			[
				0.9998305,
				0.999827,
				0.9994741
			],
			"min" : 
			[
				-0.9995315,
				-0.9998268,
				-0.999474
			],
			"name" : "accessor_normal_m1-PolyPaper23_-1347860",
			"type" : "VEC3"
		},
		{
			"bufferView" : 1,
			"byteOffset" : 0,
			"componentType" : 5126,
			"count" : 19994,
			"max" : 
			[
				0.818208,
				1.608613,
				1.283442
			],
			"min" : 
			[
				-0.06890791,
				0.06404335999999999,
				-0.2397672
			],
			"name" : "accessor_position_m0-PolyPaper22_-1347854",
			"type" : "VEC3"
		},
		{
			"bufferView" : 1,
			"byteOffset" : 479856,
			"componentType" : 5126,
			"count" : 11018,
			"max" : 
			[
				0.3471425,
				1.438421,
				0.8943989
			],
			"min" : 
			[
				-0.1175411,
				0.5037826,
				-0.1841678
			],
			"name" : "accessor_position_m1-PolyPaper23_-1347860",
			"type" : "VEC3"
		}
	],
	"asset" : 
	{
		"copyright" : "Unknown",
		"generator" : "glTF 1-to-2 Upgrader for Google Blocks",
		"version" : "2.0"
	},
	"bufferViews" : 
	[
		{
			"buffer" : 0,
			"byteLength" : 91296,
			"byteOffset" : 0,
			"name" : "ushortBufferView",
			"target" : 34963
		},
		{
			"buffer" : 0,
			"byteLength" : 744288,
			"byteOffset" : 91296,
			"byteStride" : 12,
			"name" : "vec3BufferView",
			"target" : 34962
		},
		{
			"buffer" : 0,
			"byteLength" : 496192,
			"byteOffset" : 835584,
			"byteStride" : 16,
			"name" : "vec4BufferView",
			"target" : 34962
		}
	],
	"buffers" : 
	[
		{
			"byteLength" : 1331776,
			"name" : "model",
			"uri" : "model.bin"
		}
	],
	"materials" : 
	[
		{
			"alphaMode" : "OPAQUE",
			"doubleSided" : false,
			"name" : "BlocksPaper",
			"pbrMetallicRoughness" : 
			{
				"baseColorFactor" : 
				[
					1,
					1,
					1,
					1
				],
				"metallicFactor" : 0,
				"roughnessFactor" : 0.6
			}
		},
		{
			"alphaMode" : "BLEND",
			"doubleSided" : false,
			"name" : "BlocksGlass",
			"pbrMetallicRoughness" : 
			{
				"baseColorFactor" : 
				[
					0.2,
					0.2,
					1,
					0.3
				],
				"metallicFactor" : 1,
				"roughnessFactor" : 0.4
			}
		},
		{
			"alphaMode" : "OPAQUE",
			"doubleSided" : true,
			"name" : "BlocksGem",
			"pbrMetallicRoughness" : 
			{
				"baseColorFactor" : 
				[
					1,
					0.4,
					1,
					1
				],
				"metallicFactor" : 0,
				"roughnessFactor" : 0.1
			}
		}
	],
	"meshes" : 
	[
		{
			"name" : "mesh_m0-PolyPaper22_-1347854",
			"primitives" : 
			[
				{
					"attributes" : 
					{
						"COLOR_0" : 0,
						"NORMAL" : 4,
						"POSITION" : 6
					},
					"indices" : 2,
					"material" : 0,
					"mode" : 4
				}
			]
		},
		{
			"name" : "mesh_m1-PolyPaper23_-1347860",
			"primitives" : 
			[
				{
					"attributes" : 
					{
						"COLOR_0" : 1,
						"NORMAL" : 5,
						"POSITION" : 7
					},
					"indices" : 3,
					"material" : 0,
					"mode" : 4
				}
			]
		}
	],
	"nodes" : 
	[
		{
			"matrix" : 
			[
				1,
				0,
				0,
				0,
				0,
				1,
				0,
				0,
				0,
				0,
				1,
				0,
				0,
				0,
				0,
				1
			],
			"mesh" : 0,
			"name" : "node_MeshObject1530744832-PolyPaper22"
		},
		{
			"matrix" : 
			[
				1,
				0,
				0,
				0,
				0,
				1,
				0,
				0,
				0,
				0,
				1,
				0,
				0,
				0,
				0,
				1
			],
			"mesh" : 1,
			"name" : "node_MeshObject2102823936-PolyPaper23"
		}
	],
	"scene" : 0,
	"scenes" : 
	[
		{
			"extras" : {},
			"name" : "defaultScene",
			"nodes" : 
			[
				0,
				1
			]
		}
	]
}