{
	"accessors" : 
	[
		{
			"bufferView" : 2,
			"byteOffset" : 0,
			"componentType" : 5126,
			"count" : 9784,
			"max" : 
			[
				1,
				1,
				1,
				1
			],
			"min" : 
			[
				0.006584956776350737,
				0.006584956776350737,
				0,
				1
			],
			"name" : "accessor_color_m0-PolyPaper13_-557874",
			"type" : "VEC4"
		},
		{
			"bufferView" : 2,
			"byteOffset" : 156544,
			"componentType" : 5126,
			"count" : 9992,
			"max" : 
			[
				1,
				1,
				1,
				1
			],
			"min" : 
			[
				0.006584956776350737,
				0.006584956776350737,
				0,
				1
			],
			"name" : "accessor_color_m1-PolyPaper17_-565012",
			"type" : "VEC4"
		},
		{
			"bufferView" : 2,
			"byteOffset" : 316416,
			"componentType" : 5126,
			"count" : 9826,
			"max" : 
			[
				1,
				1,
				1,
				1
			],
			"min" : 
			[
				0.006584956776350737,
				0.006584956776350737,
				0,
				1
			],
			"name" : "accessor_color_m2-PolyPaper23_-565134",
			"type" : "VEC4"
		},
		{
			"bufferView" : 2,
			"byteOffset" : 473632,
			"componentType" : 5126,
			"count" : 1046,
			"max" : 
			[
				0.9075471758842468,
				0.2844520807266235,
				0.3392233550548553,
				1
			],
			"min" : 
			[
				0.05637409910559654,
				0.05284162983298302,
				0.0328759141266346,
				1
			],
			"name" : "accessor_color_m3-PolyPaper8_-565414",
			"type" : "VEC4"
		},
		{
			"bufferView" : 2,
			"byteOffset" : 490368,
			"componentType" : 5126,
			"count" : 3190,
			"max" : 
			[
				0.6800203323364258,
				0.6800203323364258,
				0.6800203323364258,
				0.2509804
			],
			"min" : 
			[
				0.6800203323364258,
				0.6800203323364258,
				0.6800203323364258,
				0.2509804
			],
			"name" : "accessor_color_m4-PolyGlass24_-565136",
			"type" : "VEC4"
		},
		{
			"bufferView" : 0,
			"byteOffset" : 0,
			"componentType" : 5123,
			"count" : 14880,
			"max" : 
			[
				9783
			],
			"min" : 
			[
				0
			],
			"name" : "accessor_indices_0_m0-PolyPaper13_-557874",
			"type" : "SCALAR"
		},
		{
			"bufferView" : 0,
			"byteOffset" : 29760,
			"componentType" : 5123,
			"count" : 15144,
			"max" : 
			[
				9991
			],
			"min" : 
			[
				0
			],
			"name" : "accessor_indices_0_m1-PolyPaper17_-565012",
			"type" : "SCALAR"
		},
		{
			"bufferView" : 0,
			"byteOffset" : 60048,
			"componentType" : 5123,
			"count" : 14088,
			"max" : 
			[
				9825
			],
			"min" : 
			[
				0
			],
			"name" : "accessor_indices_0_m2-PolyPaper23_-565134",
			"type" : "SCALAR"
		},
		{
			"bufferView" : 0,
			"byteOffset" : 88224,
			"componentType" : 5123,
			"count" : 1332,
			"max" : 
			[
				1045
			],
			"min" : 
			[
				0
			],
			"name" : "accessor_indices_0_m3-PolyPaper8_-565414",
			"type" : "SCALAR"
		},
		{
			"bufferView" : 0,
			"byteOffset" : 90888,
			"componentType" : 5123,
			"count" : 4536,
			"max" : 
			[
				3189
			],
			"min" : 
			[
				0
			],
			"name" : "accessor_indices_0_m4-PolyGlass24_-565136",
			"type" : "SCALAR"
		},
		{
			"bufferView" : 1,
			"byteOffset" : 117408,
			"componentType" : 5126,
			"count" : 9784,
			"max" : 
			[
				1,
				1,
				1
			],
			"min" : 
			[
				-1,
				-1,
				-1
			],
			"name" : "accessor_normal_m0-PolyPaper13_-557874",
			"type" : "VEC3"
		},
		{
			"bufferView" : 1,
			"byteOffset" : 354720,
			"componentType" : 5126,
			"count" : 9992,
			"max" : 
			[
				1,
				1,
				1
			],
			"min" : 
			[
				-1,
				-1,
				-1
			],
			"name" : "accessor_normal_m1-PolyPaper17_-565012",
			"type" : "VEC3"
		},
		{
			"bufferView" : 1,
			"byteOffset" : 592536,
			"componentType" : 5126,
			"count" : 9826,
			"max" : 
			[
				1,
				1,
				1
			],
			"min" : 
			[
				-1,
				-1,
				-1
			],
			"name" : "accessor_normal_m2-PolyPaper23_-565134",
			"type" : "VEC3"
		},
		{
			"bufferView" : 1,
			"byteOffset" : 723000,
			"componentType" : 5126,
			"count" : 1046,
			"max" : 
			[
				1,
				1,
				0.9999153
			],
			"min" : 
			[
				-0.9862571999999999,
				-1,
				-0.9986594
			],
			"name" : "accessor_normal_m3-PolyPaper8_-565414",
			"type" : "VEC3"
		},
		{
			"bufferView" : 1,
			"byteOffset" : 773832,
			"componentType" : 5126,
			"count" : 3190,
			"max" : 
			[
				0.8660219,
				0.9999647,
				0.9998046
			],
			"min" : 
			[
				-0.8660225,
				-0.9999962,
				-0.9998011999999999
			],
			"name" : "accessor_normal_m4-PolyGlass24_-565136",
			"type" : "VEC3"
		},
		{
			"bufferView" : 1,
			"byteOffset" : 0,
			"componentType" : 5126,
			"count" : 9784,
			"max" : 
			[
				4.631361,
				4.599347,
				4.251894
			],
			"min" : 
			[
				-0.3018968,
				0.2307446,
				-3.714242
			],
			"name" : "accessor_position_m0-PolyPaper13_-557874",
			"type" : "VEC3"
		},
		{
			"bufferView" : 1,
			"byteOffset" : 234816,
			"componentType" : 5126,
			"count" : 9992,
			"max" : 
			[
				4.818672,
				4.274806,
				3.966164
			],
			"min" : 
			[
				-1.098127,
				0.1962142,
				-4.601696
			],
			"name" : "accessor_position_m1-PolyPaper17_-565012",
			"type" : "VEC3"
		},
		{
			"bufferView" : 1,
			"byteOffset" : 474624,
			"componentType" : 5126,
			"count" : 9826,
			"max" : 
			[
				3.898007,
				4.335823,
				2.850424
			],
			"min" : 
			[
				-1.592969,
				-0.4651113,
				-2.930434
			],
			"name" : "accessor_position_m2-PolyPaper23_-565134",
			"type" : "VEC3"
		},
		{
			"bufferView" : 1,
			"byteOffset" : 710448,
			"componentType" : 5126,
			"count" : 1046,
			"max" : 
			[
				3.84257,
				4.03809,
				1.940074
			],
			"min" : 
			[
				-1.142368,
				0.3193714,
				-3.700281
			],
			"name" : "accessor_position_m3-PolyPaper8_-565414",
			"type" : "VEC3"
		},
		{
			"bufferView" : 1,
			"byteOffset" : 735552,
			"componentType" : 5126,
			"count" : 3190,
			"max" : 
			[
				2.540824,
				1.606325,
				2.716218
			],
			"min" : 
			[
				-0.9983093,
				-0.1250206,
				-0.975245
			],
			"name" : "accessor_position_m4-PolyGlass24_-565136",
			"type" : "VEC3"
		}
	],
	"asset" : 
	{
		"copyright" : "Unknown",
		"generator" : "glTF 1-to-2 Upgrader for Google Blocks",
		"version" : "2.0"
	},
	"bufferViews" : 
	[
		{
			"buffer" : 0,
			"byteLength" : 99960,
			"byteOffset" : 0,
			"name" : "ushortBufferView",
			"target" : 34963
		},
		{
			"buffer" : 0,
			"byteLength" : 812112,
			"byteOffset" : 99960,
			"byteStride" : 12,
			"name" : "vec3BufferView",
			"target" : 34962
		},
		{
			"buffer" : 0,
			"byteLength" : 541408,
			"byteOffset" : 912072,
			"byteStride" : 16,
			"name" : "vec4BufferView",
			"target" : 34962
		}
	],
	"buffers" : 
	[
		{
			"byteLength" : 1453480,
			"name" : "model",
			"uri" : "model.bin"
		}
	],
	"materials" : 
	[
		{
			"alphaMode" : "OPAQUE",
			"doubleSided" : false,
			"name" : "BlocksPaper",
			"pbrMetallicRoughness" : 
			{
				"baseColorFactor" : 
				[
					1,
					1,
					1,
					1
				],
				"metallicFactor" : 0,
				"roughnessFactor" : 0.6
			}
		},
		{
			"alphaMode" : "BLEND",
			"doubleSided" : false,
			"name" : "BlocksGlass",
			"pbrMetallicRoughness" : 
			{
				"baseColorFactor" : 
				[
					0.2,
					0.2,
					1,
					0.3
				],
				"metallicFactor" : 1,
				"roughnessFactor" : 0.4
			}
		},
		{
			"alphaMode" : "OPAQUE",
			"doubleSided" : true,
			"name" : "BlocksGem",
			"pbrMetallicRoughness" : 
			{
				"baseColorFactor" : 
				[
					1,
					0.4,
					1,
					1
				],
				"metallicFactor" : 0,
				"roughnessFactor" : 0.1
			}
		}
	],
	"meshes" : 
	[
		{
			"name" : "mesh_m0-PolyPaper13_-557874",
			"primitives" : 
			[
				{
					"attributes" : 
					{
						"COLOR_0" : 0,
						"NORMAL" : 10,
						"POSITION" : 15
					},
					"indices" : 5,
					"material" : 0,
					"mode" : 4
				}
			]
		},
		{
			"name" : "mesh_m1-PolyPaper17_-565012",
			"primitives" : 
			[
				{
					"attributes" : 
					{
						"COLOR_0" : 1,
						"NORMAL" : 11,
						"POSITION" : 16
					},
					"indices" : 6,
					"material" : 0,
					"mode" : 4
				}
			]
		},
		{
			"name" : "mesh_m2-PolyPaper23_-565134",
			"primitives" : 
			[
				{
					"attributes" : 
					{
						"COLOR_0" : 2,
						"NORMAL" : 12,
						"POSITION" : 17
					},
					"indices" : 7,
					"material" : 0,
					"mode" : 4
				}
			]
		},
		{
			"name" : "mesh_m3-PolyPaper8_-565414",
			"primitives" : 
			[
				{
					"attributes" : 
					{
						"COLOR_0" : 3,
						"NORMAL" : 13,
						"POSITION" : 18
					},
					"indices" : 8,
					"material" : 0,
					"mode" : 4
				}
			]
		},
		{
			"name" : "mesh_m4-PolyGlass24_-565136",
			"primitives" : 
			[
				{
					"attributes" : 
					{
						"COLOR_0" : 4,
						"NORMAL" : 14,
						"POSITION" : 19
					},
					"indices" : 9,
					"material" : 1,
					"mode" : 4
				}
			]
		}
	],
	"nodes" : 
	[
		{
			"matrix" : 
			[
				1,
				0,
				0,
				0,
				0,
				1,
				0,
				0,
				0,
				0,
				1,
				0,
				0,
				0,
				0,
				1
			],
			"mesh" : 3,
			"name" : "node_MeshObject-1050871104-PolyPaper8"
		},
		{
			"matrix" : 
			[
				1,
				0,
				0,
				0,
				0,
				1,
				0,
				0,
				0,
				0,
				1,
				0,
				0,
				0,
				0,
				1
			],
			"mesh" : 4,
			"name" : "node_MeshObject-2088311232-PolyGlass24"
		},
		{
			"matrix" : 
			[
				1,
				0,
				0,
				0,
				0,
				1,
				0,
				0,
				0,
				0,
				1,
				0,
				0,
				0,
				0,
				1
			],
			"mesh" : 0,
			"name" : "node_MeshObject-517950848-PolyPaper13"
		},
		{
			"matrix" : 
			[
				1,
				0,
				0,
				0,
				0,
				1,
				0,
				0,
				0,
				0,
				1,
				0,
				0,
				0,
				0,
				1
			],
			"mesh" : 1,
			"name" : "node_MeshObject1169215936-PolyPaper17"
		},
		{
			"matrix" : 
			[
				1,
				0,
				0,
				0,
				0,
				1,
				0,
				0,
				0,
				0,
				1,
				0,
				0,
				0,
				0,
				1
			],
			"mesh" : 2,
			"name" : "node_MeshObject1687936000-PolyPaper23"
		}
	],
	"scene" : 0,
	"scenes" : 
	[
		{
			"extras" : {},
			"name" : "defaultScene",
			"nodes" : 
			[
				2,
				3,
				4,
				0,
				1
			]
		}
	]
}